<svg width="29" height="28" viewBox="0 0 29 28" fill="none" xmlns="http://www.w3.org/2000/svg">
<path d="M14.002 0C6.28212 0 0.00195312 6.2825 0.00195312 14C0.00195312 21.7187 6.28212 28 14.002 28C21.7206 28 28.002 21.7187 28.002 14C28.0008 6.2825 21.7206 0 14.002 0ZM20.232 10.3437L11.4796 18.5115C11.2498 18.7238 10.8928 18.7238 10.6688 18.4963L7.75445 15.5797C7.52695 15.3522 7.52695 14.9823 7.75445 14.7548C7.98195 14.5262 8.35179 14.5262 8.57929 14.7548L11.097 17.2725L19.4351 9.49083C19.6696 9.2715 20.0395 9.28317 20.2588 9.51883C20.4805 9.75333 20.4676 10.1232 20.232 10.3437Z" fill="#27CEAC"/>
</svg>
