<svg width="28" height="28" viewBox="0 0 28 28" fill="none" xmlns="http://www.w3.org/2000/svg">
<path d="M19.4588 20.2242L17.9783 19.369C18.1125 18.536 18.1137 17.6703 17.9748 16.8L19.46 15.9425C19.7377 15.7815 19.8333 15.4257 19.6735 15.1457L17.3402 11.1043C17.1792 10.8255 16.8222 10.7298 16.5433 10.8908L15.0675 11.7437C14.4002 11.2012 13.6453 10.7718 12.8333 10.4638V8.75C12.8333 8.428 12.572 8.16667 12.25 8.16667H7.58333C7.26133 8.16667 7 8.428 7 8.75V10.4638C6.188 10.773 5.439 11.2058 4.77283 11.7472L3.29116 10.892C3.0135 10.7298 2.65533 10.8255 2.4955 11.1055L0.162163 15.1468C0.00116325 15.4268 0.0968299 15.7827 0.375663 15.9437L1.84916 16.7942C1.71383 17.64 1.72083 18.5057 1.85966 19.3678L0.375663 20.2242C0.0979966 20.3852 0.00232992 20.7422 0.162163 21.021L2.4955 25.0623C2.6565 25.3423 3.0135 25.4368 3.29233 25.2758L4.76933 24.423C5.43433 24.9667 6.188 25.396 7 25.7052V27.4167C7 27.7387 7.26133 28 7.58333 28H12.25C12.572 28 12.8333 27.7387 12.8333 27.4167V25.7028C13.6535 25.3902 14.3978 24.9527 15.0547 24.4183L16.5422 25.277C16.8198 25.438 17.178 25.3435 17.339 25.0635L19.6723 21.0222C19.8322 20.7422 19.7365 20.3863 19.4588 20.2242ZM9.91666 22.1667C7.665 22.1667 5.83333 20.335 5.83333 18.0833C5.83333 15.8317 7.665 14 9.91666 14C12.1683 14 14 15.8317 14 18.0833C14 20.335 12.1683 22.1667 9.91666 22.1667ZM27.587 6.94283L26.768 6.47033C26.8275 6.041 26.8438 5.61167 26.7843 5.18817L27.5882 4.72383C27.867 4.56283 27.9627 4.207 27.8017 3.927L26.635 1.90633C26.474 1.6275 26.1182 1.53183 25.8382 1.69283L25.0367 2.15483C24.7007 1.89117 24.318 1.69283 23.9155 1.53067V0.583333C23.9167 0.261333 23.6553 0 23.3333 0H21C20.678 0 20.4167 0.261333 20.4167 0.583333V1.5225C20.0165 1.68583 19.6373 1.8935 19.299 2.15717L18.4952 1.69283C18.2163 1.53183 17.8593 1.6275 17.6983 1.90633L16.5317 3.927C16.3695 4.20583 16.4652 4.56167 16.7452 4.72383L17.563 5.19633C17.5023 5.62683 17.4883 6.05617 17.5467 6.48083L16.7463 6.944C16.4663 7.10617 16.3707 7.462 16.5317 7.74083L17.6983 9.7615C17.8605 10.0403 18.2152 10.136 18.4963 9.975L19.2955 9.51417C19.6315 9.77667 20.0142 9.975 20.4167 10.1383V11.0833C20.4167 11.4053 20.678 11.6667 21 11.6667H23.3333C23.6553 11.6667 23.9167 11.4053 23.9167 11.0833V10.1453C24.3168 9.98083 24.6948 9.77433 25.0332 9.5095L25.837 9.97383C26.117 10.1348 26.4728 10.0403 26.635 9.76033L27.8017 7.73967C27.9638 7.46083 27.8682 7.105 27.587 6.94283ZM22.1667 8.16667C20.8798 8.16667 19.8333 7.119 19.8333 5.83333C19.8333 4.5465 20.8798 3.5 22.1667 3.5C23.4535 3.5 24.5 4.5465 24.5 5.83333C24.5 7.119 23.4535 8.16667 22.1667 8.16667Z" fill="#232C33"/>
</svg>
