<svg width="28" height="28" viewBox="0 0 28 28" fill="none" xmlns="http://www.w3.org/2000/svg">
<path d="M23.3333 12.25C25.5885 12.25 27.4167 10.4218 27.4167 8.16665C27.4167 5.91148 25.5885 4.08331 23.3333 4.08331C21.0782 4.08331 19.25 5.91148 19.25 8.16665C19.25 10.4218 21.0782 12.25 23.3333 12.25Z" fill="#6B7EB3"/>
<path d="M15.1667 7C17.0997 7 18.6667 5.433 18.6667 3.5C18.6667 1.567 17.0997 0 15.1667 0C13.2338 0 11.6667 1.567 11.6667 3.5C11.6667 5.433 13.2338 7 15.1667 7Z" fill="#6B7EB3"/>
<path d="M7 9.33331C8.933 9.33331 10.5 7.76631 10.5 5.83331C10.5 3.90032 8.933 2.33331 7 2.33331C5.067 2.33331 3.5 3.90032 3.5 5.83331C3.5 7.76631 5.067 9.33331 7 9.33331Z" fill="#6B7EB3"/>
<path d="M2.91667 15.75C4.5275 15.75 5.83333 14.4442 5.83333 12.8334C5.83333 11.2225 4.5275 9.91669 2.91667 9.91669C1.30584 9.91669 0 11.2225 0 12.8334C0 14.4442 1.30584 15.75 2.91667 15.75Z" fill="#6B7EB3"/>
<path d="M4.66667 22.75C6.2775 22.75 7.58333 21.4441 7.58333 19.8333C7.58333 18.2225 6.2775 16.9166 4.66667 16.9166C3.05584 16.9166 1.75 18.2225 1.75 19.8333C1.75 21.4441 3.05584 22.75 4.66667 22.75Z" fill="#6B7EB3"/>
<path d="M10.5001 26.8334C11.7887 26.8334 12.8334 25.7887 12.8334 24.5C12.8334 23.2114 11.7887 22.1667 10.5001 22.1667C9.21142 22.1667 8.16675 23.2114 8.16675 24.5C8.16675 25.7887 9.21142 26.8334 10.5001 26.8334Z" fill="#6B7EB3"/>
<path d="M16.7708 26.4203C17.7373 26.4203 18.5208 25.6368 18.5208 24.6703C18.5208 23.7039 17.7373 22.9203 16.7708 22.9203C15.8043 22.9203 15.0208 23.7039 15.0208 24.6703C15.0208 25.6368 15.8043 26.4203 16.7708 26.4203Z" fill="#6B7EB3"/>
<path d="M21.0002 23.7708C21.6445 23.7708 22.1668 23.2485 22.1668 22.6042C22.1668 21.9598 21.6445 21.4375 21.0002 21.4375C20.3558 21.4375 19.8335 21.9598 19.8335 22.6042C19.8335 23.2485 20.3558 23.7708 21.0002 23.7708Z" fill="#6B7EB3"/>
<path d="M23.6611 21C24.3054 21 24.8277 20.4777 24.8277 19.8334C24.8277 19.189 24.3054 18.6667 23.6611 18.6667C23.0167 18.6667 22.4944 19.189 22.4944 19.8334C22.4944 20.4777 23.0167 21 23.6611 21Z" fill="#6B7EB3"/>
<path d="M25.0833 17.5C25.4055 17.5 25.6667 17.2388 25.6667 16.9166C25.6667 16.5945 25.4055 16.3333 25.0833 16.3333C24.7612 16.3333 24.5 16.5945 24.5 16.9166C24.5 17.2388 24.7612 17.5 25.0833 17.5Z" fill="#6B7EB3"/>
</svg>
