<svg width="657" height="862" viewBox="0 0 657 862" fill="none" xmlns="http://www.w3.org/2000/svg">
<path d="M394.487 507.189L405.168 549.142C405.168 549.142 407.871 554.092 410.368 549.527C412.864 544.962 411.582 545.659 411.582 545.659L396.431 501.792C396.431 501.792 394.774 499.295 393.984 501.611C393.195 503.927 394.487 507.189 394.487 507.189Z" fill="#4C5F94"/>
<path d="M375.758 497.654L356.513 542.061C356.513 542.061 355.585 548.409 361.084 546.391C366.583 544.373 364.904 543.988 364.904 543.988L381.322 494.493C381.322 494.493 381.517 491.064 379.171 492.455C376.825 493.846 375.758 497.654 375.758 497.654Z" fill="#4C5F94"/>
<path d="M475.111 336.381L440.621 370.211C440.621 370.211 437.371 375.694 443.202 375.795C449.032 375.896 447.63 374.949 447.63 374.949L481.432 335.459C481.432 335.459 482.905 332.389 480.218 332.831C477.53 333.273 475.111 336.381 475.111 336.381Z" fill="#4C5F94"/>
<path d="M337.449 500.671L318.203 545.078C318.203 545.078 317.275 551.426 322.774 549.408C328.273 547.39 326.595 547.005 326.595 547.005L343.012 497.51C343.012 497.51 343.208 494.081 340.861 495.472C338.515 496.863 337.449 500.671 337.449 500.671Z" fill="#4C5F94"/>
<path d="M470.616 618.06L403.458 618.643C403.458 618.643 395.543 619.812 402.874 622.539C410.204 625.265 409.08 624.161 409.08 624.161L479.277 620.516C479.277 620.516 483.269 619.702 479.552 618.683C475.835 617.663 470.616 618.06 470.616 618.06Z" fill="#E4E9F1"/>
<path d="M406.264 597.124L370.001 598.556C370.001 598.556 365.392 600.007 368.497 603.103C371.603 606.198 371.336 604.925 371.336 604.925L410.167 599.888C410.167 599.888 412.56 598.895 410.875 597.749C409.189 596.602 406.264 597.124 406.264 597.124Z" fill="#E4E9F1"/>
<path d="M486.705 745.939L455.069 782.988C455.069 782.988 452.307 788.87 458.209 788.671C464.111 788.472 462.604 787.558 462.604 787.558L493.005 744.648C493.005 744.648 494.202 741.372 491.528 741.973C488.854 742.574 486.705 745.939 486.705 745.939Z" fill="#E4E9F1"/>
<path d="M467.047 723.113L421.684 770.993C421.684 770.993 417.396 778.039 425.031 776.373C432.667 774.706 430.836 774.087 430.836 774.087L475.332 720.167C475.332 720.167 477.278 716.328 473.756 717.635C470.234 718.943 467.047 723.113 467.047 723.113Z" fill="#E4E9F1"/>
<g filter="url(#filter0_i_11:678)">
<path d="M504.339 540.509C510.198 537.404 516.356 527.69 516.356 527.69L504.587 512.497C504.587 512.497 492.43 519.4 488.458 520.294L466.33 525.279C464.061 525.791 455.678 528.274 448.244 532.328C440.811 536.381 435.335 541.184 432.441 544.215C429.547 547.246 429.401 565.123 431.186 573.048C432.971 580.973 437.294 594.869 442.031 597.371C446.768 599.872 459.193 599.452 465.561 598.613C471.93 597.773 492.796 592.477 494.995 589.008C497.194 585.538 507.241 566.621 507.241 566.621L497.614 550.351C497.614 550.351 496.664 548.781 487.216 554.478C477.768 560.175 479.228 564.009 472.618 569.067C466.007 574.126 459.836 578.49 458.446 577.613C457.056 576.737 455.596 572.902 456.406 568.556C457.215 564.21 461.799 555.445 466.522 552.597C471.246 549.748 498.48 543.613 504.339 540.509Z" fill="#F2F4F8"/>
</g>
<g filter="url(#filter1_i_11:678)">
<path d="M379.316 512.168L406.123 512.076C406.123 512.076 403.823 525.68 399.736 531.359C395.65 537.038 374.81 553.034 374.81 553.034L364.33 548.852C364.33 548.852 375.964 534.335 377.583 525.644C379.202 516.952 379.316 512.168 379.316 512.168Z" fill="#F2F4F8"/>
</g>
<path d="M432.474 600.874L466.02 587.028C466.02 587.028 469.845 584.077 465.857 582.244C461.87 580.411 462.562 581.514 462.562 581.514L427.852 599.626C427.852 599.626 425.949 601.383 427.929 601.877C429.908 602.372 432.474 600.874 432.474 600.874Z" fill="#E4E9F1"/>
<path d="M467.344 513.355L468.547 544.145C468.547 544.145 469.944 548.204 472.993 545.937C476.043 543.669 474.793 543.749 474.793 543.749L470.073 510.375C470.073 510.375 469.114 508.24 467.981 509.532C466.849 510.824 467.344 513.355 467.344 513.355Z" fill="#E4E9F1"/>
<g filter="url(#filter2_i_11:678)">
<path d="M472.66 508.388C465.456 502.874 437.023 482.513 437.023 482.513L458.755 470.48C458.755 470.48 466.526 475.867 472.283 482.897C478.04 489.927 479.245 492.63 486.009 498.838C492.773 505.047 500.373 517.61 506.2 527.599C512.027 537.587 516.108 555.701 514.234 563.261C512.36 570.821 487.83 599.544 495.492 585.922C503.154 572.3 501.051 564.39 496.976 547.521C492.29 528.118 474.638 509.902 472.66 508.388Z" fill="#E4E9F1"/>
</g>
<path d="M540.3 700.14C542.952 701.327 555.167 692.033 555.167 692.033L550.034 682.483C550.034 682.483 529.513 673.426 533.37 677.315C537.227 681.205 537.648 698.954 540.3 700.14Z" fill="#F2F4F8"/>
<g filter="url(#filter3_i_11:678)">
<path d="M488.371 588.716C485.183 574.564 458.407 561.562 458.407 561.562L488.135 569.141C488.135 569.141 495.466 575.221 496.965 595.107C498.464 614.992 485.95 630.897 479.282 638.347C472.614 645.797 469.306 660.223 461.191 669.189C453.075 678.154 427.385 696.433 419.34 708.356C411.295 720.28 403.492 727.986 404.142 736.167C404.793 744.347 415.51 768.104 415.51 768.104C415.51 768.104 408.702 769.638 398.718 762.37C388.734 755.103 386.35 760.398 382.907 745.114C379.464 729.83 384.94 725.028 387.624 713.122C390.307 701.216 398.167 691.119 409.559 680.82C420.951 670.521 463.395 641.926 469.426 631.645C475.456 621.365 491.559 602.867 488.371 588.716Z" fill="#F2F4F8"/>
</g>
<path d="M430.641 707.736L395.689 744.86C395.689 744.86 392.43 750.453 398.425 749.489C404.421 748.526 402.966 747.915 402.966 747.915L437.126 705.75C437.126 705.75 438.594 702.682 435.838 703.572C433.082 704.462 430.641 707.736 430.641 707.736Z" fill="#E4E9F1"/>
<path d="M432.689 664.227L400.44 703.711C400.44 703.711 397.583 709.518 403.497 708.136C409.41 706.754 407.915 706.247 407.915 706.247L439.019 661.791C439.019 661.791 440.267 658.627 437.58 659.708C434.893 660.789 432.689 664.227 432.689 664.227Z" fill="#E4E9F1"/>
<path d="M410.531 650.818L427.604 680.996C427.604 680.996 431.056 684.327 432.844 680.462C434.633 676.597 433.461 677.33 433.461 677.33L411.641 646.409C411.641 646.409 409.607 644.775 409.175 646.66C408.743 648.545 410.531 650.818 410.531 650.818Z" fill="#E4E9F1"/>
<path d="M407.644 520.69L428.452 548.433C428.452 548.433 432.304 551.295 433.582 547.233C434.859 543.172 433.791 544.049 433.791 544.049L408.179 516.175C408.179 516.175 405.952 514.814 405.765 516.739C405.579 518.664 407.644 520.69 407.644 520.69Z" fill="#E4E9F1"/>
<path d="M459.877 453.041L419.105 438.278C419.105 438.278 413.482 437.726 415.856 442.351C418.231 446.975 418.376 445.525 418.376 445.525L463.252 457.678C463.252 457.678 466.255 457.714 464.781 455.761C463.307 453.808 459.877 453.041 459.877 453.041Z" fill="#4C5F94"/>
<g filter="url(#filter4_i_11:678)">
<path d="M442.835 799.421L483.686 790.218C483.686 790.218 487.148 787.059 482.284 783.991C477.419 780.923 454.061 772.505 447.749 770.953C441.438 769.401 436.529 774.075 425.354 769.455C414.178 764.835 385.77 755.175 385.77 755.175C385.77 755.175 405.495 773.929 419.024 786.346C432.552 798.763 442.835 799.421 442.835 799.421Z" fill="#E4E9F1"/>
</g>
<g filter="url(#filter5_i_11:678)">
<path d="M352.352 577.722C350.892 573.887 371.349 556.193 371.349 556.193L361.62 550.057C361.62 550.057 349.731 563.442 344.51 569.377C339.289 575.311 331.486 583.017 333.839 590.814C336.192 598.611 336.517 602.702 341.764 607.468C347.011 612.234 374.029 621.017 381.928 626.97C389.827 632.923 414.658 650.526 424.444 654.27C434.23 658.013 489.445 667.582 493.672 667.819C497.899 668.057 527.314 676.895 535.327 678.064C543.341 679.232 545.948 688.162 549.678 691.485C553.407 694.809 556.869 691.65 558.373 687.742C559.878 683.834 556.971 681.515 553.993 676.238C551.016 670.961 531.119 659.383 531.119 659.383C531.119 659.383 514.256 650.691 504.031 647.642C493.805 644.592 440.987 635.078 427.344 627.445C413.701 619.812 398.215 606.646 389.494 599.689C380.773 592.732 353.812 581.556 352.352 577.722Z" fill="#E4E9F1"/>
</g>
<g filter="url(#filter6_i_11:678)">
<path d="M494.975 554.514C497.71 564.01 496.64 591.017 496.64 591.017C496.64 591.017 493.324 576.299 488.46 573.231C483.596 570.163 479.994 567.406 472.547 566.109C465.101 564.813 453.059 566.931 439.939 566.912C426.819 566.894 410.537 563.424 410.537 563.424L411.875 542.9C411.875 542.9 436.4 537.97 443.463 537.568C450.527 537.167 470.653 539.175 473.873 540.234C477.092 541.294 492.239 545.019 494.975 554.514Z" fill="#E4E9F1"/>
</g>
<g filter="url(#filter7_i_11:678)">
<path d="M116.823 368.475C116.823 368.475 99.1253 353.428 106.144 360.769C113.164 368.11 104.27 368.329 99.859 369.917C95.4475 371.506 87.9126 385.694 87.1604 387.648C86.4082 389.602 86.7335 393.692 88.9457 395.573C91.1579 397.454 103.966 398.732 103.966 398.732L112.521 389.072C112.521 389.072 112.065 388.763 111.359 388.292C112.243 388.48 113.197 388.618 114.223 388.689C120.279 389.109 133.769 385.475 133.769 385.475L116.823 368.475Z" fill="#FFEFAD"/>
</g>
<g filter="url(#filter8_i_11:678)">
<path d="M326.071 326.095C325.923 311.258 306.39 299.599 304.095 289.41C301.799 279.22 336.896 315.924 336.896 315.924C336.896 315.924 344.61 323.703 343.743 330.441C342.876 337.179 325.428 347.058 326.576 352.152C327.723 357.247 326.576 352.152 335.099 355.585C343.623 359.018 347.225 361.775 348.755 368.568C350.285 375.361 331.767 412.247 331.767 412.247C331.767 412.247 338.568 381.57 335.661 379.25C332.754 376.931 330.867 379.141 326.513 378.337C322.159 377.534 319.111 369.299 318.658 364.642C318.205 359.986 317.383 358.981 317.357 348.281C317.331 337.58 326.22 340.931 326.071 326.095Z" fill="#FFEFAD"/>
</g>
<g filter="url(#filter9_i_11:678)">
<path d="M202.699 458.572C197.605 465.073 202.839 464.488 201.15 470.222C199.461 475.956 190.357 467.3 186.245 462.279C182.133 457.257 181.355 448.51 182.036 443.598C182.718 438.686 190.891 427.329 194.537 422.343C198.184 417.358 215.382 382.554 216.65 359.072C217.918 335.589 214.634 307.779 209.049 293.572C203.464 279.365 182.846 256.65 182.846 256.65L184.223 252.176C184.223 252.176 186.18 252.924 197.101 256.412C208.021 259.9 227.351 271.605 234.013 287.948C240.676 304.291 243.552 319.703 244.853 336.064C246.154 352.425 241.412 373.717 236.089 389.786C230.766 405.855 200.958 442.905 199.893 446.118C198.829 449.332 207.792 452.071 202.699 458.572Z" fill="#FFEFAD"/>
</g>
<path d="M256.872 288.587L313.136 297.848C313.136 297.848 320.396 297.35 315.851 292.309C311.307 287.269 311.612 289.032 311.612 289.032L251.064 283.738C251.064 283.738 247.275 284.313 249.787 286.344C252.299 288.376 256.872 288.587 256.872 288.587Z" fill="#FFE580"/>
<path d="M280.424 343.387L325.732 308.774C325.732 308.774 330.341 303.151 323.545 303.012C316.748 302.874 318.245 303.857 318.245 303.857L272.902 344.299C272.902 344.299 270.726 347.449 273.931 347.01C277.136 346.571 280.424 343.387 280.424 343.387Z" fill="#FFE580"/>
<path d="M294.869 351.811L332.136 322.784C332.136 322.784 335.908 318.042 330.267 317.861C324.627 317.679 325.878 318.53 325.878 318.53L288.636 352.516C288.636 352.516 286.861 355.177 289.516 354.833C292.171 354.489 294.869 351.811 294.869 351.811Z" fill="#FFE580"/>
<path d="M276.204 349.936L231.388 335.037C231.388 335.037 225.346 334.529 228.31 339.318C231.274 344.108 231.293 342.596 231.293 342.596L280.236 354.727C280.236 354.727 283.438 354.729 281.684 352.712C279.93 350.695 276.204 349.936 276.204 349.936Z" fill="#FFE580"/>
<path d="M296.627 383.07L334.276 396.648C334.276 396.648 339.987 396.905 339.111 392.017C338.235 387.129 337.575 388.715 337.575 388.715L294.704 378.23C294.704 378.23 291.564 378.374 292.429 380.409C293.293 382.445 296.627 383.07 296.627 383.07Z" fill="#FFE580"/>
<path d="M273.005 440.03L325.791 445.456C325.791 445.456 332.728 444.342 328.785 439.304C324.842 434.266 325 436.131 325 436.131L267.846 435.299C267.846 435.299 264.201 436.217 266.437 438.194C268.673 440.17 273.005 440.03 273.005 440.03Z" fill="#FFE580"/>
<path d="M244.449 444.716L197.04 451.039C197.04 451.039 191.499 452.788 196.787 454.644C202.076 456.5 201.237 455.59 201.237 455.59L250.666 446.21C250.666 446.21 253.452 445.123 250.785 444.513C248.119 443.904 244.449 444.716 244.449 444.716Z" fill="#FFE580"/>
<path d="M290.364 453.155L307.876 410.46C307.876 410.46 308.7 404.496 303.644 406.792C298.588 409.088 300.136 409.316 300.136 409.316L285.254 456.517C285.254 456.517 285.091 459.714 287.246 458.243C289.4 456.771 290.364 453.155 290.364 453.155Z" fill="#FFE580"/>
<path d="M162.972 305.793L180.484 263.098C180.484 263.098 181.307 257.134 176.251 259.43C171.196 261.726 172.744 261.955 172.744 261.955L157.862 309.155C157.862 309.155 157.699 312.353 159.854 310.881C162.008 309.41 162.972 305.793 162.972 305.793Z" fill="#FFE580"/>
<path d="M129.252 353.882L149.047 318.445C149.047 318.445 150.429 313.396 145.857 315.053C141.284 316.709 142.578 316.998 142.578 316.998L124.512 356.446C124.512 356.446 124.009 359.17 126.014 358.043C128.018 356.915 129.252 353.882 129.252 353.882Z" fill="#FFE580"/>
<path d="M273.702 432.271L263.496 400.731C263.496 400.731 261.16 397.07 259.4 400.653C257.64 404.235 258.616 403.651 258.616 403.651L272.412 436.466C272.412 436.466 273.821 438.301 274.339 436.503C274.858 434.704 273.702 432.271 273.702 432.271Z" fill="#FFE580"/>
<path d="M215.646 330.605L196.604 303.457C196.604 303.457 193.293 300.642 192.665 304.582C192.036 308.522 192.798 307.677 192.798 307.677L215.647 334.991C215.647 334.991 217.534 336.332 217.501 334.462C217.467 332.591 215.646 330.605 215.646 330.605Z" fill="#FFE580"/>
<path d="M271.743 393.791L264.827 361.371C264.827 361.371 262.88 357.489 260.762 360.874C258.644 364.258 259.674 363.777 259.674 363.777L270.029 397.832C270.029 397.832 271.242 399.802 271.942 398.066C272.643 396.33 271.743 393.791 271.743 393.791Z" fill="#FFE580"/>
<path d="M299.646 295.761L306.283 347.477C306.283 347.477 308.016 353.488 309.705 347.634C311.394 341.78 310.542 342.729 310.542 342.729L300.979 288.902C300.979 288.902 299.911 285.887 299.368 288.827C298.826 291.768 299.646 295.761 299.646 295.761Z" fill="#FFE580"/>
<path d="M265.653 465.874L312.791 487.546C312.791 487.546 319.279 488.859 316.499 483.344C313.72 477.83 313.565 479.45 313.565 479.45L261.72 460.223C261.72 460.223 258.258 459.814 259.975 462.201C261.691 464.587 265.653 465.874 265.653 465.874Z" fill="#FFE580"/>
<path d="M123.982 433.705L174.87 443.934C174.87 443.934 181.487 443.716 177.507 438.992C173.527 434.268 173.751 435.879 173.751 435.879L118.847 429.114C118.847 429.114 115.383 429.513 117.606 431.439C119.829 433.365 123.982 433.705 123.982 433.705Z" fill="#FFE580"/>
<path d="M245.467 415.139L196.733 433.058C196.733 433.058 191.209 436.705 197.082 438.643C202.955 440.581 201.918 439.327 201.918 439.327L252.254 416.36C252.254 416.36 254.996 414.208 252.09 413.732C249.185 413.256 245.467 415.139 245.467 415.139Z" fill="#FFE580"/>
<path d="M169.997 350.059L121.263 367.977C121.263 367.977 115.738 371.624 121.611 373.563C127.484 375.501 126.447 374.247 126.447 374.247L176.784 351.28C176.784 351.28 179.525 349.128 176.62 348.652C173.714 348.175 169.997 350.059 169.997 350.059Z" fill="#FFE580"/>
<path d="M253.522 381.784L207.906 406.575C207.906 406.575 202.971 410.983 209.064 412.049C215.158 413.115 213.949 412.025 213.949 412.025L260.416 382.008C260.416 382.008 262.815 379.482 259.871 379.432C256.926 379.382 253.522 381.784 253.522 381.784Z" fill="#FFE580"/>
<path d="M288.409 469.281L298.93 502.502C298.93 502.502 302.348 508.991 306.724 511.894C311.1 514.797 309.072 512.748 309.072 512.748L292.062 470.918C292.062 470.918 289.894 467.121 288.394 466.498C286.894 465.876 288.409 469.281 288.409 469.281Z" fill="#FFE580"/>
<path d="M292.311 378.233L329.471 369.175C329.471 369.175 333.826 366.943 329.712 364.978C325.597 363.012 326.243 364.039 326.243 364.039L287.466 376.722C287.466 376.722 285.274 378.085 287.353 378.697C289.431 379.31 292.311 378.233 292.311 378.233Z" fill="#FFE580"/>
<path d="M361.649 313.282L340.888 328.794C340.888 328.794 338.726 331.75 341.714 332.916C344.702 334.083 344.066 333.201 344.066 333.201L364.981 313.875C364.981 313.875 366.013 312.155 364.592 311.935C363.171 311.716 361.649 313.282 361.649 313.282Z" fill="#FFE580"/>
<g filter="url(#filter10_i_11:678)">
<path d="M298.157 286.599C290.883 278.126 296.117 277.542 303.492 275.88C310.868 274.219 333.711 304.166 339.908 310.502C346.105 316.839 346.271 333.455 344.327 338.057C342.383 342.659 340.566 347.826 333.573 351.186C326.58 354.546 304.452 359.531 294.806 361.704C285.161 363.876 247.899 370.486 238.808 367.181C229.717 363.876 219.095 353.778 213.013 342.657C206.931 331.537 214.383 309.04 209.646 306.538C204.909 304.037 174.689 328.673 165.668 328.326C156.647 327.979 126.993 323.374 121.702 326.35C116.411 329.326 117.995 331.333 118.575 336.556C119.155 341.778 127.807 348.156 128.33 355.771C128.853 363.386 125.391 364.165 128.751 371.141C132.111 378.116 134.024 386.607 134.024 386.607C134.024 386.607 118.78 369.223 111.009 363.837C103.237 358.45 97.4934 356.77 94.1777 342.052C90.8621 327.334 100.214 307.978 120.2 304.071C140.185 300.163 148.894 304.149 159.929 302.853C170.965 301.557 200.006 284.918 211.991 285.192C223.976 285.466 237.619 293.099 237.333 305.06C237.046 317.02 232.252 316.91 235.115 326.972C237.978 337.033 237.41 337.161 244.359 341.544C251.308 345.926 263.593 339.59 276.585 339.042C289.578 338.495 299.294 339.28 299.294 339.28C299.294 339.28 325.419 344.101 331.277 340.997C337.136 337.893 340.598 334.734 338.5 328.069C336.402 321.403 305.431 295.072 298.157 286.599Z" fill="#FFE580"/>
</g>
<g filter="url(#filter11_i_11:678)">
<path d="M293.119 523.853L314.679 518.996C314.679 518.996 313.997 523.908 312.691 531.34C311.384 538.772 315.624 544.36 315.624 544.36L286.49 547.354C286.49 547.354 284.959 540.561 286.521 534.262C288.083 527.962 293.119 523.853 293.119 523.853Z" fill="#6B7EB3"/>
</g>
<g filter="url(#filter12_i_11:678)">
<path d="M410.537 563.424L411.875 542.9C411.875 542.9 361.594 539.357 330.503 541.603C299.412 543.848 286.362 546.788 286.362 546.788C286.362 546.788 295.453 550.093 311.863 554.129C328.272 558.165 410.537 563.424 410.537 563.424Z" fill="#4C5F94"/>
</g>
<g filter="url(#filter13_i_11:678)">
<path d="M399.357 452.931C398.382 440.66 421.72 414.585 421.72 414.585C421.72 414.585 420.127 433.977 428.096 442.888C436.065 451.8 458.755 470.48 458.755 470.48L437.023 482.513C437.023 482.513 400.333 465.202 399.357 452.931Z" fill="#4C5F94"/>
</g>
<g filter="url(#filter14_i_11:678)">
<path d="M547.502 470.116C559.889 453.645 564.376 431.221 564.376 431.221C564.376 431.221 567.335 454.942 559.985 467.304C552.635 479.666 516.356 527.69 516.356 527.69L504.459 511.931C504.459 511.931 535.116 486.586 547.502 470.116Z" fill="#6B7EB3"/>
</g>
<g filter="url(#filter15_i_11:678)">
<path d="M417.637 160.931C418.631 154.759 412.791 139.421 412.791 139.421L420.977 133.413C420.977 133.413 430.63 160.384 430.031 173.604C429.432 186.824 425.288 194.895 427.839 206.217C430.389 217.538 435.701 249.056 435.071 275.369C434.441 301.682 433.829 309.552 430.916 331.026C428.003 352.5 425.983 377.937 417.785 378.594C409.587 379.251 398.494 382.94 392.24 378.995C385.986 375.051 415.381 349.396 415.73 311.25C416.079 273.104 415.212 279.842 413.828 255.173C412.444 230.503 408.376 217.739 408.267 198.73C408.158 179.721 416.643 167.103 417.637 160.931Z" fill="#6B7EB3"/>
</g>
<path d="M325.446 459.525L362.383 409.647C362.383 409.647 362.902 412.37 361.879 405.032C360.856 397.694 356.77 399.407 356.77 399.407L323.637 454.072C323.637 454.072 321.277 459.726 322.081 461.923C322.884 464.119 325.446 459.525 325.446 459.525Z" fill="#4C5F94"/>
<g filter="url(#filter16_i_11:678)">
<path d="M174.389 150.301C170.022 144.148 149.13 138.742 149.13 138.742C149.13 138.742 151.725 142.322 153.128 148.548C154.53 154.775 160.964 180.686 161.117 191.953C161.271 203.22 154.826 224.895 148.853 232.783C142.88 240.671 120.918 262.273 107.811 267.605C94.7044 272.937 77.5684 281.556 68.86 279.949C60.1516 278.342 66.3096 268.627 62.6503 268.262C58.9909 267.897 41.9252 279.474 41.2562 289.736C40.5872 299.998 46.7008 298.026 53.9622 301.149C61.2235 304.271 79.5644 298.355 79.5644 298.355L101.692 293.37C112.472 290.942 128.856 284.277 142.83 272.207C156.804 260.137 164.791 250.605 171.957 240.069C179.122 229.533 182.545 210.323 183.724 202.325C184.903 194.327 184.239 180.796 182.454 172.871C180.669 164.946 178.756 156.455 174.389 150.301Z" fill="#6B7EB3"/>
</g>
<path d="M106.991 316.291L95.3359 257.235C95.3359 257.235 92.5196 250.369 90.1325 257.053C87.7455 263.736 89.3743 259.862 89.3743 259.862L105.175 324.123C105.175 324.123 106.89 327.566 107.624 324.208C108.359 320.851 106.991 316.291 106.991 316.291Z" fill="#4C5F94"/>
<path d="M125.837 305.514L144.62 248.286C144.62 248.286 145.529 240.919 140.173 245.587C134.816 250.255 136.45 249.927 136.45 249.927L120.416 311.462C120.416 311.462 120.223 315.304 122.508 312.732C124.794 310.16 125.837 305.514 125.837 305.514Z" fill="#4C5F94"/>
<g filter="url(#filter17_i_11:678)">
<path d="M332.878 454.227C332.425 449.571 334.841 431.183 337.397 418.711C339.953 406.239 346.366 397.657 349.374 389.842C352.383 382.026 354.059 370.942 352.089 364.843C350.119 358.744 345.312 353.284 340.83 351.915C336.349 350.545 318.76 354.508 318.76 354.508C318.76 354.508 334.602 358.671 337.127 359.292C339.651 359.913 343.636 364.368 344.911 370.029C346.186 375.69 339.958 382.446 337.007 387.869C334.055 393.293 329.682 410.932 327.993 416.666C326.304 422.399 322.212 451.872 318.011 462.335C313.811 472.798 302.616 486.621 299.933 498.526C297.249 510.432 293.119 523.853 293.119 523.853L314.679 518.996C314.679 518.996 326.09 490.255 329.468 478.787C332.846 467.32 333.331 458.884 332.878 454.227Z" fill="#FFE580"/>
</g>
<path d="M308.503 487.766L302.475 535.61C302.475 535.61 303.069 541.673 307.035 537.528C311.001 533.383 309.58 533.755 309.58 533.755L312.281 482.573C312.281 482.573 311.715 479.429 310.135 481.67C308.554 483.912 308.503 487.766 308.503 487.766Z" fill="#4C5F94"/>
<g filter="url(#filter18_i_11:678)">
<path d="M303.766 179.446C305.832 199.204 309.614 223.928 309.614 223.928L299.726 230.319L292.967 200.318C291.82 195.223 287.484 175.977 287.133 161.186C286.781 146.395 286.456 142.305 284.543 133.814C282.631 125.322 279.953 113.435 275.828 103.063C271.703 92.6912 264.485 81.8263 258.671 77.1881C252.857 72.5499 250.83 68.8431 243.511 68.1126C236.192 67.3821 221.951 72.9696 221.951 72.9696C221.951 72.9696 224.022 68.9341 232.903 63.3648C241.783 57.7955 256.847 53.2123 264.606 53.2489C272.364 53.2855 278.816 60.754 284.885 66.5243C290.955 72.2946 296.712 79.3249 300.027 94.0427C303.343 108.761 304.367 115.073 304.402 129.34C304.436 143.607 301.7 159.688 303.766 179.446Z" fill="#6B7EB3"/>
</g>
<g filter="url(#filter19_i_11:678)">
<path d="M171.275 244.981C175.756 246.351 185.67 250.66 185.67 250.66L187.2 257.453C187.2 257.453 165.926 250.35 150.282 249.71C134.637 249.071 76.7645 262.108 61.2032 269.778C45.6418 277.447 41.3837 290.302 41.3837 290.302C41.3837 290.302 39.8534 283.509 42.2376 278.214C44.6216 272.918 49.218 269.504 59.8004 263.551C70.3829 257.598 136.454 243.903 148.879 243.484C161.304 243.064 166.793 243.612 171.275 244.981Z" fill="#4C5F94"/>
</g>
<g filter="url(#filter20_i_11:678)">
<path d="M155.416 129.594L174.899 152.566C174.899 152.566 158.591 138.396 148.945 140.569C139.3 142.741 128.608 129.685 126.938 116.976C125.267 104.267 127.95 92.3612 136.321 84.5276C144.691 76.694 154.719 76.2193 166.194 74.2291C177.669 72.2388 192.689 75.398 203.807 82.41C214.926 89.4221 212.37 101.894 219.6 118.109C226.83 134.324 231.395 144.002 234.965 159.852C238.536 175.702 242.151 183.81 237.07 195.661C231.99 207.511 239.366 205.85 240.768 212.077C242.171 218.303 230.696 220.294 224.142 222.96C217.589 225.626 214.427 222.174 211.111 207.457C207.796 192.739 215.669 187.991 216.905 177.601C218.141 167.211 214.584 156.711 211.039 151.562C207.494 146.412 199.525 137.501 196.038 129.96C192.55 122.418 190.198 114.621 188.54 107.262C186.882 99.9032 176.032 99.3736 176.032 99.3736C176.032 99.3736 171.493 100.396 160.783 105.783C150.073 111.169 142.952 113.963 144.61 121.322C146.267 128.681 155.416 129.594 155.416 129.594Z" fill="#6B7EB3"/>
</g>
<g filter="url(#filter21_i_11:678)">
<path d="M506.829 265.746C500.385 264.236 484.618 262.423 484.618 262.423C484.618 262.423 498.496 272.993 502.143 281.057C505.791 289.121 506.299 291.376 507.569 297.014C508.839 302.651 508.366 308.681 506.986 316.101C505.606 323.52 500.668 334.11 497.618 339.536C494.569 344.962 483.75 359.247 478.831 364.502C473.911 369.757 462.203 380.095 453.418 384.444C444.633 388.792 423.94 405.301 417.587 415.026C411.233 424.75 400.976 444.239 400.976 444.239C400.976 444.239 407.311 439.85 415.988 429.603C424.665 419.355 458.644 402.222 474.218 392.79C489.792 383.358 502.48 369.244 502.48 369.244C502.48 369.244 511.284 359.56 518.999 347.752C526.714 335.944 528.895 335.091 531.764 326.151C534.632 317.212 532.649 300.97 532.649 300.97C532.649 300.97 530.027 283.661 524.637 275.99C519.247 268.319 513.272 267.256 506.829 265.746Z" fill="#6B7EB3"/>
</g>
<path d="M397.488 320.453L408.75 367.351C408.75 367.351 411.783 372.95 414.878 368.015C417.973 363.08 416.436 363.792 416.436 363.792L399.958 314.571C399.958 314.571 398.081 311.733 397.074 314.259C396.067 316.785 397.488 320.453 397.488 320.453Z" fill="#4C5F94"/>
<path d="M275.662 143.722L287.454 185.798C287.454 185.798 290.547 190.84 293.581 186.462C296.615 182.083 295.088 182.702 295.088 182.702L278.061 138.491C278.061 138.491 276.153 135.93 275.177 138.178C274.201 140.426 275.662 143.722 275.662 143.722Z" fill="#4C5F94"/>
<path d="M248.629 148.275L256.91 202.296C256.91 202.296 258.914 208.557 260.617 202.397C262.32 196.237 261.418 197.247 261.418 197.247L249.925 141.069C249.925 141.069 248.705 137.932 248.181 141.021C247.657 144.11 248.629 148.275 248.629 148.275Z" fill="#4C5F94"/>
<path d="M434.783 319.137L417.357 340.544C417.357 340.544 415.844 344.524 419.118 345.883C422.392 347.242 421.553 346.125 421.553 346.125L438.274 319.728C438.274 319.728 438.927 317.424 437.445 317.216C435.964 317.007 434.783 319.137 434.783 319.137Z" fill="#4C5F94"/>
<path d="M375.787 295.273L423.828 300.561C423.828 300.561 430.137 299.607 426.537 295.033C422.938 290.458 423.086 292.142 423.086 292.142L371.082 290.965C371.082 290.965 367.768 291.767 369.807 293.567C371.846 295.366 375.787 295.273 375.787 295.273Z" fill="#4C5F94"/>
<path d="M182.58 174.917L226.171 195.718C226.171 195.718 232.441 196.894 230.555 191.389C228.669 185.885 228.253 187.524 228.253 187.524L179.563 169.301C179.563 169.301 176.171 168.968 177.5 171.338C178.83 173.709 182.58 174.917 182.58 174.917Z" fill="#4C5F94"/>
<path d="M383.622 227.964L421.306 226.11C421.306 226.11 426.509 224.152 424.329 219.943C422.149 215.735 422.008 217.464 422.008 217.464L380.515 224.203C380.515 224.203 377.736 225.545 379.093 227.105C380.45 228.665 383.622 227.964 383.622 227.964Z" fill="#4C5F94"/>
<path d="M328.469 126.047L366.153 124.192C366.153 124.192 371.356 122.234 369.176 118.025C366.996 113.817 366.855 115.546 366.855 115.546L325.362 122.285C325.362 122.285 322.583 123.627 323.94 125.187C325.297 126.747 328.469 126.047 328.469 126.047Z" fill="#4C5F94"/>
<path d="M309.617 131.884L353.459 138.679C353.459 138.679 359.58 137.836 357.214 132.927C354.849 128.017 354.617 129.794 354.617 129.794L306.158 127.228C306.158 127.228 302.877 127.988 304.391 129.935C305.905 131.882 309.617 131.884 309.617 131.884Z" fill="#4C5F94"/>
<path d="M384.64 187.737L417.961 181.338C417.961 181.338 422.763 178.647 421.345 174.434C419.928 170.221 419.6 172.074 419.6 172.074L382.355 184.108C382.355 184.108 379.755 185.859 380.763 187.357C381.77 188.854 384.64 187.737 384.64 187.737Z" fill="#4C5F94"/>
<path d="M365.894 164.752L410.757 143.182C410.757 143.182 418.984 136.968 421.545 130.011C424.106 123.053 421.881 126.408 421.881 126.408L366.871 159.089C366.871 159.089 362.123 162.97 361.795 165.287C361.466 167.603 365.894 164.752 365.894 164.752Z" fill="#4C5F94"/>
<path d="M103.766 309.592L55.9371 280.815C55.9371 280.815 49.5103 278.439 52.7261 284.157C55.9419 289.874 54.2235 286.398 54.2235 286.398L108.116 315.64C108.116 315.64 111.518 316.631 109.627 314.067C107.736 311.504 103.766 309.592 103.766 309.592Z" fill="#4C5F94"/>
<path d="M87.1172 295.951L65.6042 273.739C65.6042 273.739 61.6762 271.614 60.4919 275.287C59.3075 278.961 60.2335 276.755 60.2335 276.755L86.6878 299.949C86.6878 299.949 88.9526 300.92 89.0937 299.22C89.2347 297.52 87.1172 295.951 87.1172 295.951Z" fill="#4C5F94"/>
<path d="M98.0059 290.988L67.5639 285.328C67.5639 285.328 63.1261 285.868 64.2924 289.545C65.4586 293.222 64.9335 290.89 64.9335 290.89L99.9759 294.492C99.9759 294.492 102.387 293.974 101.515 292.508C100.644 291.041 98.0059 290.988 98.0059 290.988Z" fill="#4C5F94"/>
<path d="M179.542 255.965L149.1 250.306C149.1 250.306 144.662 250.845 145.829 254.522C146.995 258.199 146.47 255.867 146.47 255.867L181.512 259.47C181.512 259.47 183.923 258.952 183.052 257.485C182.18 256.019 179.542 255.965 179.542 255.965Z" fill="#4C5F94"/>
<path d="M123.097 278.136L92.2799 281.242C92.2799 281.242 88.1716 283.004 90.3265 286.205C92.4814 289.405 91.3207 287.315 91.3207 287.315L125.975 280.946C125.975 280.946 128.144 279.773 126.895 278.61C125.645 277.448 123.097 278.136 123.097 278.136Z" fill="#4C5F94"/>
<path d="M178.567 267.17L136.289 265.471C136.289 265.471 130.87 266.648 134.377 270.328C137.884 274.008 135.936 271.644 135.936 271.644L183.015 270.558C183.015 270.558 185.837 269.684 183.914 268.273C181.992 266.861 178.567 267.17 178.567 267.17Z" fill="#4C5F94"/>
<path d="M506.816 349.709L520.31 326.906C520.31 326.906 521.283 322.509 518.243 320.661C515.203 318.813 516.054 320.162 516.054 320.162L503.655 348.716C503.655 348.716 503.29 351.282 504.628 351.655C505.965 352.028 506.816 349.709 506.816 349.709Z" fill="#4C5F94"/>
<path d="M498.315 377.713L501.184 357.446C501.184 357.446 500.573 354.053 497.853 353.718C495.134 353.382 496.142 354.059 496.142 354.059L495.763 378.016C495.763 378.016 496.264 379.932 497.33 379.771C498.396 379.609 498.315 377.713 498.315 377.713Z" fill="#4C5F94"/>
<path d="M503.667 401.033L471.412 383.193C471.412 383.193 466.253 382.127 466.331 386.702C466.408 391.278 467.242 389.931 467.242 389.931L504.704 405.717C504.704 405.717 507.582 406.044 507.095 404.065C506.608 402.087 503.667 401.033 503.667 401.033Z" fill="#4C5F94"/>
<path d="M472.522 427.193L431.75 412.43C431.75 412.43 426.127 411.878 428.501 416.503C430.875 421.127 431.021 419.678 431.021 419.678L475.897 431.83C475.897 431.83 478.899 431.866 477.426 429.913C475.952 427.96 472.522 427.193 472.522 427.193Z" fill="#4C5F94"/>
<path d="M487.972 462.526L535.759 489.765C535.759 489.765 542.303 491.854 539.401 486.038C536.498 480.221 536.375 481.812 536.375 481.812L483.908 456.434C483.908 456.434 480.422 455.609 482.194 458.188C483.967 460.768 487.972 462.526 487.972 462.526Z" fill="#4C5F94"/>
<path d="M507.931 435.114L560.484 451.444C560.484 451.444 567.327 452.078 563.237 447.022C559.147 441.967 559.37 443.546 559.37 443.546L502.647 430.04C502.647 430.04 499.064 429.983 501.352 432.121C503.639 434.258 507.931 435.114 507.931 435.114Z" fill="#4C5F94"/>
<path d="M524.198 407.4L569.002 418.931C569.002 418.931 574.951 419.011 571.755 414.509C568.56 410.008 568.633 411.495 568.633 411.495L519.957 402.972C519.957 402.972 516.821 403.192 518.662 405.053C520.502 406.913 524.198 407.4 524.198 407.4Z" fill="#4C5F94"/>
<path d="M466.977 483.678L509.473 518.569C509.473 518.569 515.569 521.729 513.691 515.506C511.813 509.284 511.423 510.831 511.423 510.831L464 476.99C464 476.99 460.704 475.59 462.015 478.431C463.326 481.272 466.977 483.678 466.977 483.678Z" fill="#4C5F94"/>
<path d="M498.727 323.251L518.983 288.044C518.983 288.044 520.335 282.769 515.499 283.755C510.663 284.74 512.05 285.291 512.05 285.291L493.734 325.199C493.734 325.199 493.263 328.09 495.373 327.218C497.484 326.347 498.727 323.251 498.727 323.251Z" fill="#4C5F94"/>
<path d="M470.965 308.918L490.994 266.571C490.994 266.571 492.217 260.695 487.147 263.073C482.077 265.451 483.563 265.638 483.563 265.638L465.766 312.344C465.766 312.344 465.381 315.487 467.577 313.989C469.772 312.492 470.965 308.918 470.965 308.918Z" fill="#4C5F94"/>
<path d="M515.592 732.52L546.5 694.864C546.5 694.864 549.147 688.93 543.25 689.243C537.353 689.557 538.877 690.441 538.877 690.441L509.318 733.933C509.318 733.933 508.185 737.231 510.847 736.578C513.509 735.925 515.592 732.52 515.592 732.52Z" fill="#E4E9F1"/>
<path d="M499.05 708.268L533.635 673.944C533.635 673.944 536.874 668.308 530.976 668.021C525.078 667.734 526.504 668.769 526.504 668.769L492.665 709.036C492.665 709.036 491.202 712.202 493.916 711.823C496.631 711.444 499.05 708.268 499.05 708.268Z" fill="#E4E9F1"/>
<path d="M452.405 698.024L490.005 667.018C490.005 667.018 493.749 661.704 487.904 660.876C482.058 660.048 483.382 661.21 483.382 661.21L445.976 698.202C445.976 698.202 444.228 701.221 446.965 701.093C449.703 700.965 452.405 698.024 452.405 698.024Z" fill="#E4E9F1"/>
<path d="M139.439 320.345L172.922 353.093C172.922 353.093 178.08 356.17 177.5 350.613C176.92 345.055 176.253 346.395 176.253 346.395L137.909 314.323C137.909 314.323 135.061 312.93 135.755 315.49C136.449 318.05 139.439 320.345 139.439 320.345Z" fill="#4C5F94"/>
<path d="M114.278 345.476L147.762 378.225C147.762 378.225 152.92 381.302 152.339 375.744C151.759 370.186 151.093 371.526 151.093 371.526L112.748 339.454C112.748 339.454 109.9 338.061 110.594 340.621C111.288 343.181 114.278 345.476 114.278 345.476Z" fill="#4C5F94"/>
<path d="M137.363 295.413L194.163 315.641C194.163 315.641 201.517 316.74 196.991 311.275C192.465 305.81 192.748 307.449 192.748 307.449L131.556 289.85C131.556 289.85 127.713 289.557 130.225 291.904C132.738 294.252 137.363 295.413 137.363 295.413Z" fill="#4C5F94"/>
<path d="M406.569 253.736L396.921 207.937C396.921 207.937 394.342 202.52 391.736 207.469C389.131 212.419 390.429 211.672 390.429 211.672L404.495 259.597C404.495 259.597 406.089 262.333 406.935 259.817C407.78 257.301 406.569 253.736 406.569 253.736Z" fill="#4C5F94"/>
<path d="M371.737 262.031L353.09 225.675C353.09 225.675 349.479 221.671 347.927 226.351C346.376 231.031 347.495 230.138 347.495 230.138L370.889 267.364C370.889 267.364 372.998 269.326 373.319 267.046C373.639 264.766 371.737 262.031 371.737 262.031Z" fill="#4C5F94"/>
<path d="M337.245 184.346L301.715 204.684C301.715 204.684 297.875 208.477 302.631 209.798C307.387 211.119 306.442 210.047 306.442 210.047L342.623 184.934C342.623 184.934 344.49 182.737 342.192 182.528C339.895 182.319 337.245 184.346 337.245 184.346Z" fill="#4C5F94"/>
<path d="M361.143 228.867L320.349 225.429C320.349 225.429 315.03 226.369 318.186 230.157C321.341 233.945 321.175 232.526 321.175 232.526L365.227 232.405C365.227 232.405 368.014 231.657 366.246 230.18C364.477 228.704 361.143 228.867 361.143 228.867Z" fill="#4C5F94"/>
<path d="M281.414 116.027L264.374 67.9011C264.374 67.9011 261.113 62.4779 259.795 68.3602C258.478 74.2425 259.461 73.1856 259.461 73.1856L280.729 122.804C280.729 122.804 282.629 125.489 282.884 122.588C283.139 119.688 281.414 116.027 281.414 116.027Z" fill="#4C5F94"/>
<path d="M307.638 120.215L289.017 91.7034C289.017 91.7034 285.597 88.6884 284.519 92.6752C283.442 96.662 284.371 95.8355 284.371 95.8355L307.219 124.686C307.219 124.686 309.193 126.136 309.335 124.228C309.477 122.321 307.638 120.215 307.638 120.215Z" fill="#4C5F94"/>
<path d="M322.618 135.996L294.606 125.378C294.606 125.378 290.65 124.985 292.047 128.319C293.444 131.652 293.638 130.607 293.638 130.607L324.724 139.338C324.724 139.338 326.853 139.361 325.929 137.954C325.004 136.546 322.618 135.996 322.618 135.996Z" fill="#4C5F94"/>
<path d="M201.178 119.669L171.827 113.63C171.827 113.63 167.858 113.869 169.768 116.939C171.678 120.008 171.703 118.945 171.703 118.945L203.79 122.633C203.79 122.633 205.895 122.319 204.759 121.076C203.622 119.834 201.178 119.669 201.178 119.669Z" fill="#4C5F94"/>
<path d="M127.358 152.822L162.676 157.771C162.676 157.771 167.215 157.343 164.317 154.238C161.418 151.133 161.628 152.239 161.628 152.239L123.671 149.857C123.671 149.857 121.305 150.279 122.899 151.52C124.493 152.761 127.358 152.822 127.358 152.822Z" fill="#4C5F94"/>
<path d="M96.533 163.093L122.246 155.179C122.246 155.179 126.313 152.435 126.138 148.706C125.963 144.978 125.343 146.678 125.343 146.678L95.6035 159.948C95.6035 159.948 93.3408 161.7 93.7718 162.994C94.2029 164.287 96.533 163.093 96.533 163.093Z" fill="#4C5F94"/>
<path d="M133.608 180.746L168.762 174.687C168.762 174.687 172.955 172.895 169.243 170.823C165.532 168.752 166.07 169.741 166.07 169.741L129.188 179.049C129.188 179.049 127.064 180.172 128.962 180.867C130.86 181.562 133.608 180.746 133.608 180.746Z" fill="#4C5F94"/>
<path d="M250.035 111.882L236.489 66.2891C236.489 66.2891 233.496 61.0346 231.431 66.3112C229.366 71.5878 230.553 70.7047 230.553 70.7047L248.568 118.034C248.568 118.034 250.362 120.66 250.948 118.024C251.535 115.387 250.035 111.882 250.035 111.882Z" fill="#4C5F94"/>
<path d="M443.874 297.819L447.211 271.555C447.211 271.555 446.357 267.135 442.831 266.642C439.305 266.148 440.622 267.05 440.622 267.05L440.576 298.159C440.576 298.159 441.261 300.658 442.637 300.471C444.014 300.284 443.874 297.819 443.874 297.819Z" fill="#4C5F94"/>
<g filter="url(#filter22_i_11:678)">
<path d="M379.316 512.168L406.123 512.076C406.123 512.076 405.121 506.354 408.997 491.801C412.872 477.247 424.686 467.449 427.37 455.543C430.053 443.637 422.568 426.29 414.797 420.903C407.025 415.516 383.953 412.387 383.953 412.387C383.953 412.387 403.678 431.14 403.449 440.709C403.219 450.277 390.833 466.748 387.327 477.649C383.821 488.55 379.316 512.168 379.316 512.168Z" fill="#6B7EB3"/>
</g>
<path d="M362.26 474.674L393.351 420.976C393.351 420.976 394.173 423.623 392.331 416.447C390.488 409.271 386.62 411.431 386.62 411.431L359.848 469.459C359.848 469.459 358.139 475.341 359.185 477.433C360.23 479.526 362.26 474.674 362.26 474.674Z" fill="#4C5F94"/>
<g filter="url(#filter23_i_11:678)">
<path d="M232.59 64.6248C243.388 59.6261 264.166 53.9428 264.166 53.9428C264.166 53.9428 249.783 53.614 227.656 58.5988C205.528 63.5837 201.767 73.3529 193.084 82.4465C184.402 91.54 184.912 93.8043 167.961 100.597C151.01 107.39 131.943 120.67 117.771 134.506C103.599 148.342 102.93 153.314 101.879 161.878C100.827 170.442 102.058 183.845 108.382 190.747C114.707 197.65 170.726 226.666 175.488 239.868C180.251 253.07 186.588 265.323 189.776 279.475C192.964 293.627 192.831 316.854 184.162 331.298C175.492 345.741 161.34 362.312 150.764 370.94C140.188 379.568 122.656 387.168 118.117 388.191C113.578 389.213 112.52 389.072 112.52 389.072L103.965 398.732C103.965 398.732 118.22 398.495 135.171 391.702C152.122 384.909 164.764 369.571 173.261 362.303C181.759 355.036 197.422 337.232 202.375 324.815C207.328 312.398 208.768 281.739 208.799 268.647C208.831 255.554 203.43 239.522 197.163 230.227C190.896 220.932 173.198 205.886 159.358 194.729C145.517 183.571 124.511 182.95 122.018 169.237C119.525 155.523 132.702 153.15 146.988 139.82C161.274 126.49 183.019 119.807 192.894 108.066C202.769 96.3244 211.636 85.4048 211.636 85.4048C211.636 85.4048 221.793 69.6235 232.59 64.6248Z" fill="#4C5F94"/>
</g>
<g filter="url(#filter24_i_11:678)">
<path d="M518.444 269.672C515.849 266.093 516.856 265.271 509.34 261.017C501.824 256.762 483.144 253.238 474.181 250.498C465.217 247.759 463.26 247.011 453.105 246.919C443.403 246.832 436.017 252.194 435.376 252.673C436.335 251.948 452.264 239.899 456.171 236.712C460.2 233.425 470.215 227.6 469.182 217.721C468.149 207.842 458.548 202.273 458.548 202.273C458.548 202.273 443.458 196.156 431.217 194.749C418.977 193.343 409.771 194.822 409.771 194.822C409.771 194.822 383.474 197.178 365.006 202.528C346.537 207.878 331.671 215.985 319.571 220.495C307.471 225.006 308.224 223.052 302.365 226.156C296.506 229.26 300.829 243.156 300.829 243.156C300.829 243.156 300.587 247.374 307.211 247.667C313.835 247.959 331.098 239.906 331.098 239.906C331.098 239.906 347.794 231.981 358.689 224.769C369.584 217.556 395.74 209.284 414.094 208.718C432.448 208.152 444.574 214.343 444.574 214.343C444.574 214.343 440.196 216.08 431.41 222.067C422.623 228.054 413.429 240.012 411.718 243.157C408.766 248.581 407.262 252.488 408.664 258.715C410.067 264.942 413.427 271.917 423.838 273.141C434.248 274.364 449.88 269.653 449.88 269.653L472.575 264.541C482.221 262.368 491.809 262.587 502.034 265.636C512.26 268.686 518.444 269.672 518.444 269.672Z" fill="#4C5F94"/>
</g>
<g filter="url(#filter25_i_11:678)">
<path d="M289.3 170.809C279.171 181.418 268.289 193.981 252.23 204.736C236.172 215.491 248.386 206.197 232.768 216.258C217.149 226.32 213.666 220.561 223.39 224.914C233.115 229.266 239.277 221.335 273.052 207.183C306.826 193.032 347.772 144.551 356.965 137.722C366.157 130.893 384.696 128.501 390.37 127.223C396.043 125.944 406.652 130.692 416.393 142.178C426.135 153.664 432.186 177.877 432.186 177.877C432.186 177.877 425.643 132.957 419.306 120.704C412.969 108.451 395.367 107.063 390.063 104.689C384.759 102.315 373.596 103.046 354.885 112.614C336.175 122.182 299.43 160.2 289.3 170.809Z" fill="#4C5F94"/>
</g>
<g filter="url(#filter26_i_11:678)">
<path d="M395.077 380.119C391.805 378.829 390.472 378.204 392.935 379.434C393.583 379.757 394.3 379.982 395.077 380.119C401.621 382.699 415.916 387.937 423.102 386.318C433.882 383.89 456.125 374.121 470.195 375.709C484.265 377.298 509.083 389.551 517.607 392.984C526.13 396.417 544 404.287 549.687 408.359C555.374 412.432 565.357 419.699 564.701 435.312C564.045 450.924 556.026 473.549 556.026 473.549C561.24 468.825 574.799 437.795 574.799 437.795C574.799 437.795 582.29 431.349 580.734 413.856C579.183 396.427 563.693 388.043 552.835 382.167L552.714 382.101C541.851 376.221 497.218 360.7 484.85 358.727C472.483 356.755 440.569 357.997 428.667 366.031C417.808 373.361 403.171 381.542 395.077 380.119Z" fill="#4C5F94"/>
</g>
<g filter="url(#filter27_i_11:678)">
<path d="M384.19 414.712C401.352 416.794 414.102 420.465 414.102 420.465C414.102 420.465 401.778 410.75 385.554 404.888C369.329 399.027 347.5 397.401 347.5 397.401L357.255 414.237C357.255 414.237 367.028 412.631 384.19 414.712Z" fill="#4C5F94"/>
</g>
<g filter="url(#filter28_i_11:678)">
<path d="M278.848 412.867C291.91 415.278 357.255 414.237 357.255 414.237L347.5 397.401C347.5 397.401 329.85 393.152 314.311 392.982C298.773 392.812 289.022 394.516 271.86 392.434C254.698 390.352 212.379 366.577 179.854 375.688C147.328 384.8 148.33 407.771 151.575 419.531C154.821 431.291 155.841 435.819 162.535 439.07C169.229 442.32 175.54 443.872 178.205 450.409C180.87 456.947 179.168 457.33 185.237 463.1C191.307 468.871 194.724 473.454 199.263 472.432C203.802 471.409 201.532 471.92 201.704 464.744C201.876 457.568 207.352 452.765 205.197 448.492C203.042 444.219 187.71 442.32 187.341 445.972C186.971 449.624 194.857 450.227 193.295 456.527C191.734 462.827 198.044 462.371 194.953 463.886C191.267 465.692 190.371 462.898 189.776 462.078C187.182 458.499 185.128 444.091 182.279 439.38C179.429 434.669 165.078 421.248 165.078 421.248C165.078 421.248 163.816 420.937 167.746 411.922C170.182 407.622 174.708 403.168 183.068 400.541C203.111 394.241 265.785 410.457 278.848 412.867Z" fill="#FFE580"/>
</g>
<defs>
<filter id="filter0_i_11:678" x="430.019" y="512.497" width="86.3367" height="90.7669" filterUnits="userSpaceOnUse" color-interpolation-filters="sRGB">
<feFlood flood-opacity="0" result="BackgroundImageFix"/>
<feBlend mode="normal" in="SourceGraphic" in2="BackgroundImageFix" result="shape"/>
<feColorMatrix in="SourceAlpha" type="matrix" values="0 0 0 0 0 0 0 0 0 0 0 0 0 0 0 0 0 0 127 0" result="hardAlpha"/>
<feOffset dy="4"/>
<feGaussianBlur stdDeviation="2"/>
<feComposite in2="hardAlpha" operator="arithmetic" k2="-1" k3="1"/>
<feColorMatrix type="matrix" values="0 0 0 0 0 0 0 0 0 0 0 0 0 0 0 0 0 0 0.25 0"/>
<feBlend mode="normal" in2="shape" result="effect1_innerShadow_11:678"/>
</filter>
<filter id="filter1_i_11:678" x="364.33" y="512.076" width="41.7938" height="44.9575" filterUnits="userSpaceOnUse" color-interpolation-filters="sRGB">
<feFlood flood-opacity="0" result="BackgroundImageFix"/>
<feBlend mode="normal" in="SourceGraphic" in2="BackgroundImageFix" result="shape"/>
<feColorMatrix in="SourceAlpha" type="matrix" values="0 0 0 0 0 0 0 0 0 0 0 0 0 0 0 0 0 0 127 0" result="hardAlpha"/>
<feOffset dy="4"/>
<feGaussianBlur stdDeviation="2"/>
<feComposite in2="hardAlpha" operator="arithmetic" k2="-1" k3="1"/>
<feColorMatrix type="matrix" values="0 0 0 0 0 0 0 0 0 0 0 0 0 0 0 0 0 0 0.25 0"/>
<feBlend mode="normal" in2="shape" result="effect1_innerShadow_11:678"/>
</filter>
<filter id="filter2_i_11:678" x="437.022" y="470.48" width="77.6719" height="123.057" filterUnits="userSpaceOnUse" color-interpolation-filters="sRGB">
<feFlood flood-opacity="0" result="BackgroundImageFix"/>
<feBlend mode="normal" in="SourceGraphic" in2="BackgroundImageFix" result="shape"/>
<feColorMatrix in="SourceAlpha" type="matrix" values="0 0 0 0 0 0 0 0 0 0 0 0 0 0 0 0 0 0 127 0" result="hardAlpha"/>
<feOffset dy="4"/>
<feGaussianBlur stdDeviation="2"/>
<feComposite in2="hardAlpha" operator="arithmetic" k2="-1" k3="1"/>
<feColorMatrix type="matrix" values="0 0 0 0 0 0 0 0 0 0 0 0 0 0 0 0 0 0 0.25 0"/>
<feBlend mode="normal" in2="shape" result="effect1_innerShadow_11:678"/>
</filter>
<filter id="filter3_i_11:678" x="381.804" y="561.562" width="115.284" height="210.677" filterUnits="userSpaceOnUse" color-interpolation-filters="sRGB">
<feFlood flood-opacity="0" result="BackgroundImageFix"/>
<feBlend mode="normal" in="SourceGraphic" in2="BackgroundImageFix" result="shape"/>
<feColorMatrix in="SourceAlpha" type="matrix" values="0 0 0 0 0 0 0 0 0 0 0 0 0 0 0 0 0 0 127 0" result="hardAlpha"/>
<feOffset dy="4"/>
<feGaussianBlur stdDeviation="2"/>
<feComposite in2="hardAlpha" operator="arithmetic" k2="-1" k3="1"/>
<feColorMatrix type="matrix" values="0 0 0 0 0 0 0 0 0 0 0 0 0 0 0 0 0 0 0.25 0"/>
<feBlend mode="normal" in2="shape" result="effect1_innerShadow_11:678"/>
</filter>
<filter id="filter4_i_11:678" x="385.77" y="755.175" width="99.1104" height="48.2452" filterUnits="userSpaceOnUse" color-interpolation-filters="sRGB">
<feFlood flood-opacity="0" result="BackgroundImageFix"/>
<feBlend mode="normal" in="SourceGraphic" in2="BackgroundImageFix" result="shape"/>
<feColorMatrix in="SourceAlpha" type="matrix" values="0 0 0 0 0 0 0 0 0 0 0 0 0 0 0 0 0 0 127 0" result="hardAlpha"/>
<feOffset dy="4"/>
<feGaussianBlur stdDeviation="2"/>
<feComposite in2="hardAlpha" operator="arithmetic" k2="-1" k3="1"/>
<feColorMatrix type="matrix" values="0 0 0 0 0 0 0 0 0 0 0 0 0 0 0 0 0 0 0.25 0"/>
<feBlend mode="normal" in2="shape" result="effect1_innerShadow_11:678"/>
</filter>
<filter id="filter5_i_11:678" x="333.408" y="550.057" width="225.375" height="146.824" filterUnits="userSpaceOnUse" color-interpolation-filters="sRGB">
<feFlood flood-opacity="0" result="BackgroundImageFix"/>
<feBlend mode="normal" in="SourceGraphic" in2="BackgroundImageFix" result="shape"/>
<feColorMatrix in="SourceAlpha" type="matrix" values="0 0 0 0 0 0 0 0 0 0 0 0 0 0 0 0 0 0 127 0" result="hardAlpha"/>
<feOffset dy="4"/>
<feGaussianBlur stdDeviation="2"/>
<feComposite in2="hardAlpha" operator="arithmetic" k2="-1" k3="1"/>
<feColorMatrix type="matrix" values="0 0 0 0 0 0 0 0 0 0 0 0 0 0 0 0 0 0 0.25 0"/>
<feBlend mode="normal" in2="shape" result="effect1_innerShadow_11:678"/>
</filter>
<filter id="filter6_i_11:678" x="410.537" y="537.516" width="86.3091" height="57.5007" filterUnits="userSpaceOnUse" color-interpolation-filters="sRGB">
<feFlood flood-opacity="0" result="BackgroundImageFix"/>
<feBlend mode="normal" in="SourceGraphic" in2="BackgroundImageFix" result="shape"/>
<feColorMatrix in="SourceAlpha" type="matrix" values="0 0 0 0 0 0 0 0 0 0 0 0 0 0 0 0 0 0 127 0" result="hardAlpha"/>
<feOffset dy="4"/>
<feGaussianBlur stdDeviation="2"/>
<feComposite in2="hardAlpha" operator="arithmetic" k2="-1" k3="1"/>
<feColorMatrix type="matrix" values="0 0 0 0 0 0 0 0 0 0 0 0 0 0 0 0 0 0 0.25 0"/>
<feBlend mode="normal" in2="shape" result="effect1_innerShadow_11:678"/>
</filter>
<filter id="filter7_i_11:678" x="86.7955" y="358.751" width="46.9731" height="43.9811" filterUnits="userSpaceOnUse" color-interpolation-filters="sRGB">
<feFlood flood-opacity="0" result="BackgroundImageFix"/>
<feBlend mode="normal" in="SourceGraphic" in2="BackgroundImageFix" result="shape"/>
<feColorMatrix in="SourceAlpha" type="matrix" values="0 0 0 0 0 0 0 0 0 0 0 0 0 0 0 0 0 0 127 0" result="hardAlpha"/>
<feOffset dy="4"/>
<feGaussianBlur stdDeviation="2"/>
<feComposite in2="hardAlpha" operator="arithmetic" k2="-1" k3="1"/>
<feColorMatrix type="matrix" values="0 0 0 0 0 0 0 0 0 0 0 0 0 0 0 0 0 0 0.25 0"/>
<feBlend mode="normal" in2="shape" result="effect1_innerShadow_11:678"/>
</filter>
<filter id="filter8_i_11:678" x="303.987" y="287.622" width="44.8582" height="128.624" filterUnits="userSpaceOnUse" color-interpolation-filters="sRGB">
<feFlood flood-opacity="0" result="BackgroundImageFix"/>
<feBlend mode="normal" in="SourceGraphic" in2="BackgroundImageFix" result="shape"/>
<feColorMatrix in="SourceAlpha" type="matrix" values="0 0 0 0 0 0 0 0 0 0 0 0 0 0 0 0 0 0 127 0" result="hardAlpha"/>
<feOffset dy="4"/>
<feGaussianBlur stdDeviation="2"/>
<feComposite in2="hardAlpha" operator="arithmetic" k2="-1" k3="1"/>
<feColorMatrix type="matrix" values="0 0 0 0 0 0 0 0 0 0 0 0 0 0 0 0 0 0 0.25 0"/>
<feBlend mode="normal" in2="shape" result="effect1_innerShadow_11:678"/>
</filter>
<filter id="filter9_i_11:678" x="181.817" y="252.176" width="63.2531" height="223.939" filterUnits="userSpaceOnUse" color-interpolation-filters="sRGB">
<feFlood flood-opacity="0" result="BackgroundImageFix"/>
<feBlend mode="normal" in="SourceGraphic" in2="BackgroundImageFix" result="shape"/>
<feColorMatrix in="SourceAlpha" type="matrix" values="0 0 0 0 0 0 0 0 0 0 0 0 0 0 0 0 0 0 127 0" result="hardAlpha"/>
<feOffset dy="4"/>
<feGaussianBlur stdDeviation="2"/>
<feComposite in2="hardAlpha" operator="arithmetic" k2="-1" k3="1"/>
<feColorMatrix type="matrix" values="0 0 0 0 0 0 0 0 0 0 0 0 0 0 0 0 0 0 0.25 0"/>
<feBlend mode="normal" in2="shape" result="effect1_innerShadow_11:678"/>
</filter>
<filter id="filter10_i_11:678" x="93.5222" y="275.814" width="251.903" height="114.794" filterUnits="userSpaceOnUse" color-interpolation-filters="sRGB">
<feFlood flood-opacity="0" result="BackgroundImageFix"/>
<feBlend mode="normal" in="SourceGraphic" in2="BackgroundImageFix" result="shape"/>
<feColorMatrix in="SourceAlpha" type="matrix" values="0 0 0 0 0 0 0 0 0 0 0 0 0 0 0 0 0 0 127 0" result="hardAlpha"/>
<feOffset dy="4"/>
<feGaussianBlur stdDeviation="2"/>
<feComposite in2="hardAlpha" operator="arithmetic" k2="-1" k3="1"/>
<feColorMatrix type="matrix" values="0 0 0 0 0 0 0 0 0 0 0 0 0 0 0 0 0 0 0.25 0"/>
<feBlend mode="normal" in2="shape" result="effect1_innerShadow_11:678"/>
</filter>
<filter id="filter11_i_11:678" x="285.819" y="518.996" width="29.8051" height="32.358" filterUnits="userSpaceOnUse" color-interpolation-filters="sRGB">
<feFlood flood-opacity="0" result="BackgroundImageFix"/>
<feBlend mode="normal" in="SourceGraphic" in2="BackgroundImageFix" result="shape"/>
<feColorMatrix in="SourceAlpha" type="matrix" values="0 0 0 0 0 0 0 0 0 0 0 0 0 0 0 0 0 0 127 0" result="hardAlpha"/>
<feOffset dy="4"/>
<feGaussianBlur stdDeviation="2"/>
<feComposite in2="hardAlpha" operator="arithmetic" k2="-1" k3="1"/>
<feColorMatrix type="matrix" values="0 0 0 0 0 0 0 0 0 0 0 0 0 0 0 0 0 0 0.25 0"/>
<feBlend mode="normal" in2="shape" result="effect1_innerShadow_11:678"/>
</filter>
<filter id="filter12_i_11:678" x="286.362" y="540.857" width="125.513" height="26.5674" filterUnits="userSpaceOnUse" color-interpolation-filters="sRGB">
<feFlood flood-opacity="0" result="BackgroundImageFix"/>
<feBlend mode="normal" in="SourceGraphic" in2="BackgroundImageFix" result="shape"/>
<feColorMatrix in="SourceAlpha" type="matrix" values="0 0 0 0 0 0 0 0 0 0 0 0 0 0 0 0 0 0 127 0" result="hardAlpha"/>
<feOffset dy="4"/>
<feGaussianBlur stdDeviation="2"/>
<feComposite in2="hardAlpha" operator="arithmetic" k2="-1" k3="1"/>
<feColorMatrix type="matrix" values="0 0 0 0 0 0 0 0 0 0 0 0 0 0 0 0 0 0 0.25 0"/>
<feBlend mode="normal" in2="shape" result="effect1_innerShadow_11:678"/>
</filter>
<filter id="filter13_i_11:678" x="399.328" y="414.585" width="59.4272" height="71.9284" filterUnits="userSpaceOnUse" color-interpolation-filters="sRGB">
<feFlood flood-opacity="0" result="BackgroundImageFix"/>
<feBlend mode="normal" in="SourceGraphic" in2="BackgroundImageFix" result="shape"/>
<feColorMatrix in="SourceAlpha" type="matrix" values="0 0 0 0 0 0 0 0 0 0 0 0 0 0 0 0 0 0 127 0" result="hardAlpha"/>
<feOffset dy="4"/>
<feGaussianBlur stdDeviation="2"/>
<feComposite in2="hardAlpha" operator="arithmetic" k2="-1" k3="1"/>
<feColorMatrix type="matrix" values="0 0 0 0 0 0 0 0 0 0 0 0 0 0 0 0 0 0 0.25 0"/>
<feBlend mode="normal" in2="shape" result="effect1_innerShadow_11:678"/>
</filter>
<filter id="filter14_i_11:678" x="504.459" y="431.221" width="60.5054" height="100.469" filterUnits="userSpaceOnUse" color-interpolation-filters="sRGB">
<feFlood flood-opacity="0" result="BackgroundImageFix"/>
<feBlend mode="normal" in="SourceGraphic" in2="BackgroundImageFix" result="shape"/>
<feColorMatrix in="SourceAlpha" type="matrix" values="0 0 0 0 0 0 0 0 0 0 0 0 0 0 0 0 0 0 127 0" result="hardAlpha"/>
<feOffset dy="4"/>
<feGaussianBlur stdDeviation="2"/>
<feComposite in2="hardAlpha" operator="arithmetic" k2="-1" k3="1"/>
<feColorMatrix type="matrix" values="0 0 0 0 0 0 0 0 0 0 0 0 0 0 0 0 0 0 0.25 0"/>
<feBlend mode="normal" in2="shape" result="effect1_innerShadow_11:678"/>
</filter>
<filter id="filter15_i_11:678" x="391.367" y="133.413" width="43.7549" height="251.378" filterUnits="userSpaceOnUse" color-interpolation-filters="sRGB">
<feFlood flood-opacity="0" result="BackgroundImageFix"/>
<feBlend mode="normal" in="SourceGraphic" in2="BackgroundImageFix" result="shape"/>
<feColorMatrix in="SourceAlpha" type="matrix" values="0 0 0 0 0 0 0 0 0 0 0 0 0 0 0 0 0 0 127 0" result="hardAlpha"/>
<feOffset dy="4"/>
<feGaussianBlur stdDeviation="2"/>
<feComposite in2="hardAlpha" operator="arithmetic" k2="-1" k3="1"/>
<feColorMatrix type="matrix" values="0 0 0 0 0 0 0 0 0 0 0 0 0 0 0 0 0 0 0.25 0"/>
<feBlend mode="normal" in2="shape" result="effect1_innerShadow_11:678"/>
</filter>
<filter id="filter16_i_11:678" x="41.2061" y="138.742" width="143.11" height="167.316" filterUnits="userSpaceOnUse" color-interpolation-filters="sRGB">
<feFlood flood-opacity="0" result="BackgroundImageFix"/>
<feBlend mode="normal" in="SourceGraphic" in2="BackgroundImageFix" result="shape"/>
<feColorMatrix in="SourceAlpha" type="matrix" values="0 0 0 0 0 0 0 0 0 0 0 0 0 0 0 0 0 0 127 0" result="hardAlpha"/>
<feOffset dy="4"/>
<feGaussianBlur stdDeviation="2"/>
<feComposite in2="hardAlpha" operator="arithmetic" k2="-1" k3="1"/>
<feColorMatrix type="matrix" values="0 0 0 0 0 0 0 0 0 0 0 0 0 0 0 0 0 0 0.25 0"/>
<feBlend mode="normal" in2="shape" result="effect1_innerShadow_11:678"/>
</filter>
<filter id="filter17_i_11:678" x="293.119" y="351.627" width="59.8214" height="176.226" filterUnits="userSpaceOnUse" color-interpolation-filters="sRGB">
<feFlood flood-opacity="0" result="BackgroundImageFix"/>
<feBlend mode="normal" in="SourceGraphic" in2="BackgroundImageFix" result="shape"/>
<feColorMatrix in="SourceAlpha" type="matrix" values="0 0 0 0 0 0 0 0 0 0 0 0 0 0 0 0 0 0 127 0" result="hardAlpha"/>
<feOffset dy="4"/>
<feGaussianBlur stdDeviation="2"/>
<feComposite in2="hardAlpha" operator="arithmetic" k2="-1" k3="1"/>
<feColorMatrix type="matrix" values="0 0 0 0 0 0 0 0 0 0 0 0 0 0 0 0 0 0 0.25 0"/>
<feBlend mode="normal" in2="shape" result="effect1_innerShadow_11:678"/>
</filter>
<filter id="filter18_i_11:678" x="221.951" y="53.2487" width="87.663" height="181.071" filterUnits="userSpaceOnUse" color-interpolation-filters="sRGB">
<feFlood flood-opacity="0" result="BackgroundImageFix"/>
<feBlend mode="normal" in="SourceGraphic" in2="BackgroundImageFix" result="shape"/>
<feColorMatrix in="SourceAlpha" type="matrix" values="0 0 0 0 0 0 0 0 0 0 0 0 0 0 0 0 0 0 127 0" result="hardAlpha"/>
<feOffset dy="4"/>
<feGaussianBlur stdDeviation="2"/>
<feComposite in2="hardAlpha" operator="arithmetic" k2="-1" k3="1"/>
<feColorMatrix type="matrix" values="0 0 0 0 0 0 0 0 0 0 0 0 0 0 0 0 0 0 0.25 0"/>
<feBlend mode="normal" in2="shape" result="effect1_innerShadow_11:678"/>
</filter>
<filter id="filter19_i_11:678" x="40.9001" y="243.345" width="146.3" height="50.9565" filterUnits="userSpaceOnUse" color-interpolation-filters="sRGB">
<feFlood flood-opacity="0" result="BackgroundImageFix"/>
<feBlend mode="normal" in="SourceGraphic" in2="BackgroundImageFix" result="shape"/>
<feColorMatrix in="SourceAlpha" type="matrix" values="0 0 0 0 0 0 0 0 0 0 0 0 0 0 0 0 0 0 127 0" result="hardAlpha"/>
<feOffset dy="4"/>
<feGaussianBlur stdDeviation="2"/>
<feComposite in2="hardAlpha" operator="arithmetic" k2="-1" k3="1"/>
<feColorMatrix type="matrix" values="0 0 0 0 0 0 0 0 0 0 0 0 0 0 0 0 0 0 0.25 0"/>
<feBlend mode="normal" in2="shape" result="effect1_innerShadow_11:678"/>
</filter>
<filter id="filter20_i_11:678" x="126.466" y="73.6424" width="114.42" height="154.142" filterUnits="userSpaceOnUse" color-interpolation-filters="sRGB">
<feFlood flood-opacity="0" result="BackgroundImageFix"/>
<feBlend mode="normal" in="SourceGraphic" in2="BackgroundImageFix" result="shape"/>
<feColorMatrix in="SourceAlpha" type="matrix" values="0 0 0 0 0 0 0 0 0 0 0 0 0 0 0 0 0 0 127 0" result="hardAlpha"/>
<feOffset dy="4"/>
<feGaussianBlur stdDeviation="2"/>
<feComposite in2="hardAlpha" operator="arithmetic" k2="-1" k3="1"/>
<feColorMatrix type="matrix" values="0 0 0 0 0 0 0 0 0 0 0 0 0 0 0 0 0 0 0.25 0"/>
<feBlend mode="normal" in2="shape" result="effect1_innerShadow_11:678"/>
</filter>
<filter id="filter21_i_11:678" x="400.976" y="262.423" width="132.34" height="185.817" filterUnits="userSpaceOnUse" color-interpolation-filters="sRGB">
<feFlood flood-opacity="0" result="BackgroundImageFix"/>
<feBlend mode="normal" in="SourceGraphic" in2="BackgroundImageFix" result="shape"/>
<feColorMatrix in="SourceAlpha" type="matrix" values="0 0 0 0 0 0 0 0 0 0 0 0 0 0 0 0 0 0 127 0" result="hardAlpha"/>
<feOffset dy="4"/>
<feGaussianBlur stdDeviation="2"/>
<feComposite in2="hardAlpha" operator="arithmetic" k2="-1" k3="1"/>
<feColorMatrix type="matrix" values="0 0 0 0 0 0 0 0 0 0 0 0 0 0 0 0 0 0 0.25 0"/>
<feBlend mode="normal" in2="shape" result="effect1_innerShadow_11:678"/>
</filter>
<filter id="filter22_i_11:678" x="379.316" y="412.387" width="48.6097" height="103.781" filterUnits="userSpaceOnUse" color-interpolation-filters="sRGB">
<feFlood flood-opacity="0" result="BackgroundImageFix"/>
<feBlend mode="normal" in="SourceGraphic" in2="BackgroundImageFix" result="shape"/>
<feColorMatrix in="SourceAlpha" type="matrix" values="0 0 0 0 0 0 0 0 0 0 0 0 0 0 0 0 0 0 127 0" result="hardAlpha"/>
<feOffset dy="4"/>
<feGaussianBlur stdDeviation="2"/>
<feComposite in2="hardAlpha" operator="arithmetic" k2="-1" k3="1"/>
<feColorMatrix type="matrix" values="0 0 0 0 0 0 0 0 0 0 0 0 0 0 0 0 0 0 0.25 0"/>
<feBlend mode="normal" in2="shape" result="effect1_innerShadow_11:678"/>
</filter>
<filter id="filter23_i_11:678" x="101.544" y="53.9384" width="162.622" height="348.794" filterUnits="userSpaceOnUse" color-interpolation-filters="sRGB">
<feFlood flood-opacity="0" result="BackgroundImageFix"/>
<feBlend mode="normal" in="SourceGraphic" in2="BackgroundImageFix" result="shape"/>
<feColorMatrix in="SourceAlpha" type="matrix" values="0 0 0 0 0 0 0 0 0 0 0 0 0 0 0 0 0 0 127 0" result="hardAlpha"/>
<feOffset dy="4"/>
<feGaussianBlur stdDeviation="2"/>
<feComposite in2="hardAlpha" operator="arithmetic" k2="-1" k3="1"/>
<feColorMatrix type="matrix" values="0 0 0 0 0 0 0 0 0 0 0 0 0 0 0 0 0 0 0.25 0"/>
<feBlend mode="normal" in2="shape" result="effect1_innerShadow_11:678"/>
</filter>
<filter id="filter24_i_11:678" x="299.293" y="194.143" width="219.151" height="83.2008" filterUnits="userSpaceOnUse" color-interpolation-filters="sRGB">
<feFlood flood-opacity="0" result="BackgroundImageFix"/>
<feBlend mode="normal" in="SourceGraphic" in2="BackgroundImageFix" result="shape"/>
<feColorMatrix in="SourceAlpha" type="matrix" values="0 0 0 0 0 0 0 0 0 0 0 0 0 0 0 0 0 0 127 0" result="hardAlpha"/>
<feOffset dy="4"/>
<feGaussianBlur stdDeviation="2"/>
<feComposite in2="hardAlpha" operator="arithmetic" k2="-1" k3="1"/>
<feColorMatrix type="matrix" values="0 0 0 0 0 0 0 0 0 0 0 0 0 0 0 0 0 0 0.25 0"/>
<feBlend mode="normal" in2="shape" result="effect1_innerShadow_11:678"/>
</filter>
<filter id="filter25_i_11:678" x="217.966" y="103.546" width="214.22" height="126.56" filterUnits="userSpaceOnUse" color-interpolation-filters="sRGB">
<feFlood flood-opacity="0" result="BackgroundImageFix"/>
<feBlend mode="normal" in="SourceGraphic" in2="BackgroundImageFix" result="shape"/>
<feColorMatrix in="SourceAlpha" type="matrix" values="0 0 0 0 0 0 0 0 0 0 0 0 0 0 0 0 0 0 127 0" result="hardAlpha"/>
<feOffset dy="4"/>
<feGaussianBlur stdDeviation="2"/>
<feComposite in2="hardAlpha" operator="arithmetic" k2="-1" k3="1"/>
<feColorMatrix type="matrix" values="0 0 0 0 0 0 0 0 0 0 0 0 0 0 0 0 0 0 0.25 0"/>
<feBlend mode="normal" in2="shape" result="effect1_innerShadow_11:678"/>
</filter>
<filter id="filter26_i_11:678" x="391.664" y="357.903" width="189.282" height="119.646" filterUnits="userSpaceOnUse" color-interpolation-filters="sRGB">
<feFlood flood-opacity="0" result="BackgroundImageFix"/>
<feBlend mode="normal" in="SourceGraphic" in2="BackgroundImageFix" result="shape"/>
<feColorMatrix in="SourceAlpha" type="matrix" values="0 0 0 0 0 0 0 0 0 0 0 0 0 0 0 0 0 0 127 0" result="hardAlpha"/>
<feOffset dy="4"/>
<feGaussianBlur stdDeviation="2"/>
<feComposite in2="hardAlpha" operator="arithmetic" k2="-1" k3="1"/>
<feColorMatrix type="matrix" values="0 0 0 0 0 0 0 0 0 0 0 0 0 0 0 0 0 0 0.25 0"/>
<feBlend mode="normal" in2="shape" result="effect1_innerShadow_11:678"/>
</filter>
<filter id="filter27_i_11:678" x="347.5" y="397.401" width="66.6014" height="27.0634" filterUnits="userSpaceOnUse" color-interpolation-filters="sRGB">
<feFlood flood-opacity="0" result="BackgroundImageFix"/>
<feBlend mode="normal" in="SourceGraphic" in2="BackgroundImageFix" result="shape"/>
<feColorMatrix in="SourceAlpha" type="matrix" values="0 0 0 0 0 0 0 0 0 0 0 0 0 0 0 0 0 0 127 0" result="hardAlpha"/>
<feOffset dy="4"/>
<feGaussianBlur stdDeviation="2"/>
<feComposite in2="hardAlpha" operator="arithmetic" k2="-1" k3="1"/>
<feColorMatrix type="matrix" values="0 0 0 0 0 0 0 0 0 0 0 0 0 0 0 0 0 0 0.25 0"/>
<feBlend mode="normal" in2="shape" result="effect1_innerShadow_11:678"/>
</filter>
<filter id="filter28_i_11:678" x="150.049" y="373.617" width="207.206" height="102.958" filterUnits="userSpaceOnUse" color-interpolation-filters="sRGB">
<feFlood flood-opacity="0" result="BackgroundImageFix"/>
<feBlend mode="normal" in="SourceGraphic" in2="BackgroundImageFix" result="shape"/>
<feColorMatrix in="SourceAlpha" type="matrix" values="0 0 0 0 0 0 0 0 0 0 0 0 0 0 0 0 0 0 127 0" result="hardAlpha"/>
<feOffset dy="4"/>
<feGaussianBlur stdDeviation="2"/>
<feComposite in2="hardAlpha" operator="arithmetic" k2="-1" k3="1"/>
<feColorMatrix type="matrix" values="0 0 0 0 0 0 0 0 0 0 0 0 0 0 0 0 0 0 0.25 0"/>
<feBlend mode="normal" in2="shape" result="effect1_innerShadow_11:678"/>
</filter>
</defs>
</svg>
