<svg width="40" height="40" viewBox="0 0 40 40" fill="none" xmlns="http://www.w3.org/2000/svg">
<path d="M30 14.3999V4.36994L21.6667 6.69661V18.2966L29.475 15.1716C29.7917 15.0466 30 14.7399 30 14.3999ZM20.8333 5.17161L29.455 2.79161L21.0717 0.268276C20.9167 0.22161 20.7517 0.22161 20.595 0.268276L12.2117 2.79161L20.8333 5.17161ZM12.19 15.1733L20 18.2983V6.69828L11.6667 4.36994V14.3999C11.6667 14.7399 11.8733 15.0466 12.19 15.1733ZM23.3333 28.5666C23.3333 28.8816 23.51 29.1716 23.7917 29.3116L30 32.4149V24.1633L23.3333 21.8866V28.5666ZM31.1267 17.7849C30.9383 17.7133 30.73 17.7133 30.54 17.7849C30.54 17.7849 23.855 20.2949 23.8467 20.2999C23.8467 20.2999 30.8233 22.6716 30.8317 22.6716C30.84 22.6716 37.8167 20.2999 37.8167 20.2999C37.8083 20.2966 31.1267 17.7849 31.1267 17.7849ZM31.6667 24.1633V32.4149L37.8733 29.3116C38.155 29.1699 38.3333 28.8816 38.3333 28.5666V21.8866L31.6667 24.1633ZM11.0967 18.6083C10.9267 18.5516 10.7383 18.5516 10.57 18.6083L1.64167 21.5833L10.8333 25.1716L20.025 21.5849L11.0967 18.6083ZM0 36.0666C0 36.4249 0.23 36.7433 0.57 36.8583L10 39.9999V26.6366L0 22.7333V36.0666ZM11.6667 39.9999L21.0967 36.8583C21.4367 36.7433 21.6667 36.4249 21.6667 36.0666V22.7333L11.6667 26.6366V39.9999Z" fill="#232C33"/>
</svg>
