<svg width="28" height="28" viewBox="0 0 28 28" fill="none" xmlns="http://www.w3.org/2000/svg">
<path d="M17.6878 0.507481L14.3792 5.83331H17.6038C18.1067 5.83331 18.375 6.42948 18.039 6.80515L8.96 16.9563C8.51317 17.4568 7.714 16.9248 7.9975 16.3205L11.2712 9.33331H7.8435C7.38617 9.33331 7.1085 8.83281 7.34533 8.44548L12.4367 0.10498C5.327 0.893647 0 6.80631 0 14C0 21.7198 6.28017 28 14 28C21.7198 28 28 21.7198 28 14C28 7.69181 23.7067 2.15131 17.6878 0.507481ZM14 18.6666C12.7703 18.6666 11.6095 18.1918 10.731 17.3296C10.5012 17.1045 10.4977 16.7346 10.7228 16.5048C10.948 16.275 11.3178 16.2715 11.5477 16.4978C12.2068 17.143 13.0783 17.5 14 17.5C15.9297 17.5 17.5 15.9296 17.5 14C17.5 13.0235 17.108 12.1181 16.3963 11.4473C16.1618 11.2268 16.1513 10.857 16.3707 10.6225C16.5923 10.388 16.961 10.3775 17.1955 10.5968C18.13 11.4776 18.6667 12.7178 18.6667 14C18.6667 16.5736 16.5737 18.6666 14 18.6666Z" fill="#CD3C52"/>
</svg>
