<svg width="1440" height="920" viewBox="0 0 1440 920" fill="none" xmlns="http://www.w3.org/2000/svg">
<path d="M1440 0V622C1440 622 60.8955 622 1.91799 622.465C0.913205 622.506 0.268236 622.518 -7.94418e-06 622.5C-0.179343 622.488 0.473218 622.476 1.91799 622.465C29.0067 621.352 317.619 598.661 536.5 550.477C763.5 500.507 981.5 413.953 1173.5 279.282C1365.5 144.61 1440 0 1440 0Z" fill="#27CEAC"/>
<path d="M1385.55 621.525C1420.23 621.209 1440 621.5 1440 621.5L1385.55 621.525C1245.58 622.801 862.793 633.982 557.917 714.225C177.519 814.345 0 920 0 920V622.155L1385.55 621.525Z" fill="#27CEAC"/>
</svg>
