<svg width="45" height="45" viewBox="0 0 45 45" fill="none" xmlns="http://www.w3.org/2000/svg">
<path d="M33.75 16.2001V4.91632L24.375 7.53382V20.5838L33.1594 17.0682C33.5156 16.9276 33.75 16.5826 33.75 16.2001ZM23.4375 5.8182L33.1369 3.1407L23.7056 0.301948C23.5312 0.249448 23.3456 0.249448 23.1694 0.301948L13.7381 3.1407L23.4375 5.8182ZM13.7137 17.0701L22.5 20.5857V7.5357L13.125 4.91632V16.2001C13.125 16.5826 13.3575 16.9276 13.7137 17.0701ZM26.25 32.1376C26.25 32.4919 26.4487 32.8182 26.7656 32.9757L33.75 36.4669V27.1838L26.25 24.6226V32.1376ZM35.0175 20.0082C34.8056 19.9276 34.5712 19.9276 34.3575 20.0082C34.3575 20.0082 26.8369 22.8319 26.8275 22.8376C26.8275 22.8376 34.6763 25.5057 34.6856 25.5057C34.695 25.5057 42.5438 22.8376 42.5438 22.8376C42.5344 22.8338 35.0175 20.0082 35.0175 20.0082ZM35.625 27.1838V36.4669L42.6075 32.9757C42.9244 32.8163 43.125 32.4919 43.125 32.1376V24.6226L35.625 27.1838ZM12.4838 20.9344C12.2925 20.8707 12.0806 20.8707 11.8912 20.9344L1.84688 24.2813L12.1875 28.3182L22.5281 24.2832L12.4838 20.9344ZM0 40.5751C0 40.9782 0.25875 41.3363 0.64125 41.4657L11.25 45.0001V29.9663L0 25.5751V40.5751ZM13.125 45.0001L23.7337 41.4657C24.1162 41.3363 24.375 40.9782 24.375 40.5751V25.5751L13.125 29.9663V45.0001Z" fill="#F2F4F8"/>
</svg>
